<mxfile host="app.diagrams.net" modified="2021-11-18T15:07:26.303Z" agent="5.0 (Windows NT 10.0; Win64; x64) AppleWebKit/537.36 (KHTML, like Gecko) Chrome/95.0.4638.69 Safari/537.36" etag="TVr4Mr2X9XMzSzaqQ1_g" version="15.8.2" type="github">
  <diagram id="2f404044-711c-603c-8f00-f6bb4c023d3c" name="Page-1">
    <mxGraphModel dx="2062" dy="1122" grid="1" gridSize="10" guides="1" tooltips="1" connect="1" arrows="1" fold="1" page="1" pageScale="1" pageWidth="827" pageHeight="1169" background="none" math="0" shadow="0">
      <root>
        <mxCell id="0" />
        <mxCell id="1" parent="0" />
        <mxCell id="63" value="" style="swimlane;shadow=0;strokeColor=#4277BB;fillColor=#ffffff;fontColor=none;align=right;startSize=0;collapsible=0;noLabel=1;strokeWidth=3;" parent="1" vertex="1">
          <mxGeometry x="110" y="160" width="1580" height="951" as="geometry" />
        </mxCell>
        <mxCell id="102" value="数据采集层" style="text;html=1;align=left;verticalAlign=middle;fontColor=#4277BB;shadow=0;dashed=0;strokeColor=none;fillColor=none;labelBackgroundColor=none;fontStyle=1;fontSize=16;spacingLeft=5;" parent="63" vertex="1">
          <mxGeometry y="10" width="150" height="20" as="geometry" />
        </mxCell>
        <mxCell id="103" value="" style="line;strokeWidth=3;direction=south;html=1;shadow=0;labelBackgroundColor=none;fillColor=none;gradientColor=none;fontSize=12;fontColor=#4277BB;align=right;strokeColor=#4277BB;" parent="63" vertex="1">
          <mxGeometry x="175" y="1" width="10" height="169" as="geometry" />
        </mxCell>
        <mxCell id="106" value="" style="line;strokeWidth=3;direction=south;html=1;shadow=0;labelBackgroundColor=none;fillColor=none;gradientColor=none;fontSize=12;fontColor=#4277BB;align=right;strokeColor=#4277BB;" parent="63" vertex="1">
          <mxGeometry x="1410" width="10" height="430" as="geometry" />
        </mxCell>
        <mxCell id="107" value="业务处理层" style="text;html=1;align=left;verticalAlign=middle;fontColor=#4277BB;shadow=0;dashed=0;strokeColor=none;fillColor=none;labelBackgroundColor=none;fontStyle=1;fontSize=16;spacingLeft=5;" parent="63" vertex="1">
          <mxGeometry x="190" y="10" width="150" height="20" as="geometry" />
        </mxCell>
        <mxCell id="108" value="数据呈现层" style="text;html=1;align=left;verticalAlign=middle;fontColor=#4277BB;shadow=0;dashed=0;strokeColor=none;fillColor=none;labelBackgroundColor=none;fontStyle=1;fontSize=16;spacingLeft=5;" parent="63" vertex="1">
          <mxGeometry x="1420" y="10" width="140" height="20" as="geometry" />
        </mxCell>
        <mxCell id="109" value="应用组件" style="rounded=0;html=1;shadow=0;labelBackgroundColor=none;strokeColor=none;strokeWidth=2;fillColor=#EBC01A;gradientColor=none;fontSize=12;fontColor=#4277BB;align=left;labelPosition=right;verticalLabelPosition=middle;verticalAlign=middle;spacingLeft=5;" parent="63" vertex="1">
          <mxGeometry x="15" y="781" width="20" height="10" as="geometry" />
        </mxCell>
        <mxCell id="110" value="基础服务" style="rounded=0;html=1;shadow=0;labelBackgroundColor=none;strokeColor=none;strokeWidth=2;fillColor=#8DC642;gradientColor=none;fontSize=12;fontColor=#4277BB;align=left;labelPosition=right;verticalLabelPosition=middle;verticalAlign=middle;spacingLeft=5;" parent="63" vertex="1">
          <mxGeometry x="15" y="805" width="20" height="10" as="geometry" />
        </mxCell>
        <mxCell id="111" value="管理" style="rounded=0;html=1;shadow=0;labelBackgroundColor=none;strokeColor=none;strokeWidth=2;fillColor=#0DB39D;gradientColor=none;fontSize=12;fontColor=#4277BB;align=left;labelPosition=right;verticalLabelPosition=middle;verticalAlign=middle;spacingLeft=5;" parent="63" vertex="1">
          <mxGeometry x="15" y="829" width="20" height="10" as="geometry" />
        </mxCell>
        <mxCell id="112" value="数据" style="rounded=0;html=1;shadow=0;labelBackgroundColor=none;strokeColor=none;strokeWidth=2;fillColor=#335D81;gradientColor=none;fontSize=12;fontColor=#4277BB;align=left;labelPosition=right;verticalLabelPosition=middle;verticalAlign=middle;spacingLeft=5;" parent="63" vertex="1">
          <mxGeometry x="15" y="853" width="20" height="10" as="geometry" />
        </mxCell>
        <mxCell id="113" value="分析" style="rounded=0;html=1;shadow=0;labelBackgroundColor=none;strokeColor=none;strokeWidth=2;fillColor=#744399;gradientColor=none;fontSize=12;fontColor=#4277BB;align=left;labelPosition=right;verticalLabelPosition=middle;verticalAlign=middle;spacingLeft=5;" parent="63" vertex="1">
          <mxGeometry x="15" y="877" width="20" height="10" as="geometry" />
        </mxCell>
        <mxCell id="115" value="安全" style="rounded=0;html=1;shadow=0;labelBackgroundColor=none;strokeColor=none;strokeWidth=2;fillColor=#E52134;gradientColor=none;fontSize=12;fontColor=#4277BB;align=left;labelPosition=right;verticalLabelPosition=middle;verticalAlign=middle;spacingLeft=5;" parent="63" vertex="1">
          <mxGeometry x="15" y="901" width="20" height="10" as="geometry" />
        </mxCell>
        <mxCell id="117" value="图例" style="text;html=1;align=left;verticalAlign=middle;fontColor=#4277BB;shadow=0;dashed=0;strokeColor=none;fillColor=none;labelBackgroundColor=none;fontStyle=1;fontSize=14;spacingLeft=0;" parent="63" vertex="1">
          <mxGeometry x="15" y="751" width="150" height="20" as="geometry" />
        </mxCell>
        <mxCell id="189" style="edgeStyle=orthogonalEdgeStyle;rounded=0;html=1;labelBackgroundColor=#ffffff;startArrow=classic;startFill=1;startSize=4;endSize=4;jettySize=auto;orthogonalLoop=1;strokeColor=#4277BB;strokeWidth=2;fontSize=12;fontColor=#4277BB;" parent="63" target="119" edge="1">
          <mxGeometry relative="1" as="geometry">
            <mxPoint x="270" y="219.71428571428578" as="sourcePoint" />
            <Array as="points">
              <mxPoint x="250" y="220" />
              <mxPoint x="250" y="220" />
            </Array>
          </mxGeometry>
        </mxCell>
        <mxCell id="123" value="" style="swimlane;shadow=0;labelBackgroundColor=#007FFF;strokeColor=#4277BB;fillColor=none;gradientColor=none;fontColor=#000000;align=right;collapsible=0;startSize=0;strokeWidth=3;" parent="63" vertex="1">
          <mxGeometry x="270" y="70" width="770" height="670" as="geometry" />
        </mxCell>
        <mxCell id="126" value="" style="swimlane;shadow=0;labelBackgroundColor=#007FFF;strokeColor=#4277BB;fillColor=none;gradientColor=none;fontColor=#000000;align=right;collapsible=0;startSize=0;strokeWidth=3;" parent="123" vertex="1">
          <mxGeometry x="34" y="30" width="716" height="270" as="geometry" />
        </mxCell>
        <mxCell id="122" value="应用服务器" style="aspect=fixed;perimeter=ellipsePerimeter;html=1;align=center;shadow=0;dashed=0;image;image=img/lib/ibm/applications/app_server.svg;labelBackgroundColor=none;strokeColor=#4277BB;strokeWidth=2;fillColor=#E52134;gradientColor=none;fontSize=12;fontColor=#4277BB;verticalAlign=top;" parent="126" vertex="1">
          <mxGeometry x="436" y="60" width="60" height="60" as="geometry" />
        </mxCell>
        <mxCell id="132" value="其他" style="aspect=fixed;perimeter=ellipsePerimeter;html=1;align=center;shadow=0;dashed=0;image;image=img/lib/ibm/data/data_services.svg;labelBackgroundColor=none;strokeColor=#4277BB;strokeWidth=2;fillColor=#E52134;gradientColor=none;fontSize=12;fontColor=#4277BB;verticalAlign=top;" parent="126" vertex="1">
          <mxGeometry x="166" y="60" width="60" height="60" as="geometry" />
        </mxCell>
        <mxCell id="141" value="应用处理" style="text;html=1;align=left;verticalAlign=middle;fontColor=#4277BB;shadow=0;dashed=0;strokeColor=none;fillColor=none;labelBackgroundColor=none;fontStyle=1;fontSize=12;spacingLeft=5;" parent="126" vertex="1">
          <mxGeometry x="5" y="8" width="195" height="20" as="geometry" />
        </mxCell>
        <mxCell id="130" value="" style="swimlane;shadow=0;labelBackgroundColor=#007FFF;strokeColor=#4277BB;fillColor=none;gradientColor=none;fontColor=#4277BB;align=right;collapsible=0;startSize=0;strokeWidth=3;" parent="123" vertex="1">
          <mxGeometry x="30" y="380" width="720" height="270" as="geometry" />
        </mxCell>
        <mxCell id="134" value="DATABASES" style="aspect=fixed;perimeter=ellipsePerimeter;html=1;align=center;shadow=0;dashed=0;image;image=img/lib/ibm/data/data_services.svg;labelBackgroundColor=none;strokeColor=#4277BB;strokeWidth=2;fillColor=#E52134;gradientColor=none;fontSize=12;fontColor=#4277BB;" parent="130" vertex="1">
          <mxGeometry x="317.5" y="90" width="60" height="60" as="geometry" />
        </mxCell>
        <mxCell id="135" value="数据分析" style="aspect=fixed;perimeter=ellipsePerimeter;html=1;align=center;shadow=0;dashed=0;image;image=img/lib/ibm/analytics/analytics.svg;labelBackgroundColor=none;strokeColor=#4277BB;strokeWidth=2;fillColor=#E52134;gradientColor=none;fontSize=12;fontColor=#4277BB;" parent="130" vertex="1">
          <mxGeometry x="207.5" y="90" width="60" height="60" as="geometry" />
        </mxCell>
        <mxCell id="142" value="数据处理" style="text;html=1;align=left;verticalAlign=middle;fontColor=#4277BB;shadow=0;dashed=0;strokeColor=none;fillColor=none;labelBackgroundColor=none;fontStyle=1;fontSize=12;spacingLeft=5;" parent="130" vertex="1">
          <mxGeometry x="7" y="8" width="150" height="20" as="geometry" />
        </mxCell>
        <mxCell id="187" style="edgeStyle=orthogonalEdgeStyle;rounded=0;html=1;exitX=0.75;exitY=0;entryX=0.75;entryY=0;labelBackgroundColor=#ffffff;startArrow=classic;startFill=1;startSize=4;endSize=4;jettySize=auto;orthogonalLoop=1;strokeColor=#EDC11C;strokeWidth=2;fontSize=12;fontColor=#4277BB;" parent="130" source="142" target="142" edge="1">
          <mxGeometry relative="1" as="geometry" />
        </mxCell>
        <mxCell id="133" value="缓存服务" style="aspect=fixed;perimeter=ellipsePerimeter;html=1;align=center;shadow=0;dashed=0;image;image=img/lib/ibm/data/caches.svg;labelBackgroundColor=none;strokeColor=#4277BB;strokeWidth=2;fillColor=#E52134;gradientColor=none;fontSize=12;fontColor=#4277BB;" parent="130" vertex="1">
          <mxGeometry x="87.5" y="90" width="60" height="60" as="geometry" />
        </mxCell>
        <mxCell id="1EYf2WibRtq6nlrTMrHv-224" value="数据索引" style="outlineConnect=0;dashed=0;verticalLabelPosition=bottom;verticalAlign=top;align=center;html=1;shape=mxgraph.aws3.elasticsearch_service;fillColor=#B266FF;gradientColor=none;strokeColor=#232957;fontColor=#4277BB;" vertex="1" parent="130">
          <mxGeometry x="447.5" y="90" width="42" height="60" as="geometry" />
        </mxCell>
        <mxCell id="1EYf2WibRtq6nlrTMrHv-225" value="版本管理" style="shape=image;html=1;verticalAlign=top;verticalLabelPosition=bottom;labelBackgroundColor=#ffffff;imageAspect=0;aspect=fixed;image=https://cdn2.iconfinder.com/data/icons/essential-web-2/50/version-episode-statement-event-front-128.png;fontColor=#4277BB;strokeColor=#4277BB;imageBackground=#66CC00;imageBorder=none;opacity=50;" vertex="1" parent="130">
          <mxGeometry x="577.5" y="95" width="55" height="55" as="geometry" />
        </mxCell>
        <mxCell id="188" style="edgeStyle=orthogonalEdgeStyle;rounded=0;html=1;labelBackgroundColor=#ffffff;startArrow=classic;startFill=1;startSize=4;endSize=4;jettySize=auto;orthogonalLoop=1;strokeColor=#4277BB;strokeWidth=2;fontSize=12;fontColor=#4277BB;" parent="63" source="119" edge="1">
          <mxGeometry relative="1" as="geometry">
            <mxPoint x="105" y="220" as="targetPoint" />
          </mxGeometry>
        </mxCell>
        <mxCell id="119" value="&lt;span&gt;SNMP/API/FTP&lt;/span&gt;" style="aspect=fixed;perimeter=ellipsePerimeter;html=1;align=center;shadow=0;image;image=img/lib/ibm/infrastructure/edge_services.svg;labelBackgroundColor=none;strokeColor=none;strokeWidth=2;fillColor=#808080;gradientColor=none;fontSize=12;fontColor=#4277BB;rounded=0;verticalAlign=top;spacingLeft=5;" parent="63" vertex="1">
          <mxGeometry x="150" y="190" width="60" height="60" as="geometry" />
        </mxCell>
        <mxCell id="151" value="应用网关" style="aspect=fixed;perimeter=ellipsePerimeter;html=1;align=center;shadow=0;dashed=0;image;image=img/lib/ibm/infrastructure/transformation_connectivity.svg;labelBackgroundColor=none;strokeColor=#4277BB;strokeWidth=2;fillColor=#E52134;gradientColor=none;fontSize=12;fontColor=#4277BB;" parent="63" vertex="1">
          <mxGeometry x="1385" y="445" width="60" height="60" as="geometry" />
        </mxCell>
        <mxCell id="174" value="" style="swimlane;shadow=0;labelBackgroundColor=#007FFF;strokeColor=#4277BB;fillColor=none;gradientColor=none;fontColor=#000000;align=right;collapsible=0;startSize=0;strokeWidth=3;" parent="63" vertex="1">
          <mxGeometry x="275" y="771" width="1045" height="159" as="geometry" />
        </mxCell>
        <mxCell id="175" value="集成服务" style="aspect=fixed;perimeter=ellipsePerimeter;html=1;align=center;shadow=0;dashed=0;image;image=img/lib/ibm/blockchain/existing_enterprise_systems.svg;labelBackgroundColor=none;strokeColor=#4277BB;strokeWidth=2;fillColor=none;gradientColor=none;fontSize=12;fontColor=#4277BB;" parent="174" vertex="1">
          <mxGeometry x="45" y="49" width="60" height="60" as="geometry" />
        </mxCell>
        <mxCell id="176" value="集群管理" style="aspect=fixed;perimeter=ellipsePerimeter;html=1;align=center;shadow=0;dashed=0;image;image=img/lib/ibm/infrastructure/infrastructure_services.svg;labelBackgroundColor=none;strokeColor=#4277BB;strokeWidth=2;fillColor=none;gradientColor=none;fontSize=12;fontColor=#4277BB;" parent="174" vertex="1">
          <mxGeometry x="193" y="49" width="60" height="60" as="geometry" />
        </mxCell>
        <mxCell id="177" value="数据源管理" style="aspect=fixed;perimeter=ellipsePerimeter;html=1;align=center;shadow=0;dashed=0;image;image=img/lib/ibm/data/data_sources.svg;labelBackgroundColor=none;strokeColor=#4277BB;strokeWidth=2;fillColor=#FF77BB;gradientColor=none;fontSize=12;fontColor=#4277BB;imageBackground=none;sketch=0;" parent="174" vertex="1">
          <mxGeometry x="342" y="49" width="60" height="60" as="geometry" />
        </mxCell>
        <mxCell id="178" value="负载均衡" style="aspect=fixed;perimeter=ellipsePerimeter;html=1;align=center;shadow=0;dashed=0;image;image=img/lib/ibm/infrastructure/load_balancing_routing.svg;labelBackgroundColor=none;strokeColor=#4277BB;strokeWidth=2;fillColor=none;gradientColor=none;fontSize=12;fontColor=#4277BB;" parent="174" vertex="1">
          <mxGeometry x="490" y="49" width="60" height="60" as="geometry" />
        </mxCell>
        <mxCell id="179" value="安全认证" style="aspect=fixed;perimeter=ellipsePerimeter;html=1;align=center;shadow=0;dashed=0;image;image=img/lib/ibm/blockchain/certificate_authority.svg;labelBackgroundColor=none;strokeColor=#4277BB;strokeWidth=2;fillColor=none;gradientColor=none;fontSize=12;fontColor=#4277BB;" parent="174" vertex="1">
          <mxGeometry x="638" y="49" width="60" height="60" as="geometry" />
        </mxCell>
        <mxCell id="183" value="基础服务" style="text;html=1;align=left;verticalAlign=middle;fontColor=#4277BB;shadow=0;dashed=0;strokeColor=none;fillColor=none;labelBackgroundColor=none;fontStyle=1;fontSize=12;spacingLeft=5;" parent="174" vertex="1">
          <mxGeometry x="8" y="5" width="150" height="20" as="geometry" />
        </mxCell>
        <mxCell id="169" value="配置管理" style="aspect=fixed;perimeter=ellipsePerimeter;html=1;align=center;shadow=0;dashed=0;image;image=img/lib/ibm/management/cluster_management.svg;labelBackgroundColor=none;strokeColor=#4277BB;strokeWidth=2;fillColor=none;gradientColor=none;fontSize=12;fontColor=#4277BB;" parent="174" vertex="1">
          <mxGeometry x="935" y="49" width="60" height="60" as="geometry" />
        </mxCell>
        <mxCell id="131" value="注册发现" style="aspect=fixed;perimeter=ellipsePerimeter;html=1;align=center;shadow=0;dashed=0;image;image=img/lib/ibm/infrastructure/transformation_connectivity.svg;labelBackgroundColor=none;strokeColor=#4277BB;strokeWidth=2;fillColor=#E52134;gradientColor=none;fontSize=12;fontColor=#4277BB;verticalAlign=top;" parent="174" vertex="1">
          <mxGeometry x="787" y="49" width="60" height="60" as="geometry" />
        </mxCell>
        <mxCell id="185" style="edgeStyle=orthogonalEdgeStyle;rounded=0;html=1;exitX=0.75;exitY=0;entryX=0.75;entryY=0;labelBackgroundColor=#ffffff;startArrow=classic;startFill=1;startSize=4;endSize=4;jettySize=auto;orthogonalLoop=1;strokeColor=#EDC11C;strokeWidth=2;fontSize=12;fontColor=#4277BB;" parent="63" edge="1">
          <mxGeometry relative="1" as="geometry">
            <mxPoint x="88.41640786499875" y="193.1671842700025" as="sourcePoint" />
            <mxPoint x="88.41640786499875" y="193.1671842700025" as="targetPoint" />
          </mxGeometry>
        </mxCell>
        <mxCell id="190" value="" style="line;strokeWidth=3;direction=south;html=1;shadow=0;labelBackgroundColor=none;fillColor=none;gradientColor=none;fontSize=12;fontColor=#4277BB;align=right;strokeColor=#4277BB;" parent="63" vertex="1">
          <mxGeometry x="175" y="300" width="10" height="650" as="geometry" />
        </mxCell>
        <mxCell id="153" value="" style="swimlane;shadow=0;labelBackgroundColor=#007FFF;strokeColor=#4277BB;fillColor=none;gradientColor=none;fontColor=#000000;align=right;collapsible=0;startSize=0;strokeWidth=3;" parent="63" vertex="1">
          <mxGeometry x="1070" y="70" width="250" height="669.5" as="geometry" />
        </mxCell>
        <mxCell id="154" value="Web应用服务" style="text;html=1;align=left;verticalAlign=middle;fontColor=#4277BB;shadow=0;dashed=0;strokeColor=none;fillColor=none;labelBackgroundColor=none;fontStyle=1;fontSize=12;spacingLeft=5;" parent="153" vertex="1">
          <mxGeometry x="10" y="8" width="245" height="20" as="geometry" />
        </mxCell>
        <mxCell id="155" value="配置管理" style="aspect=fixed;perimeter=ellipsePerimeter;html=1;align=center;shadow=0;dashed=0;image;image=img/lib/ibm/management/cloud_management.svg;labelBackgroundColor=none;strokeColor=#4277BB;strokeWidth=2;fillColor=#E52134;gradientColor=none;fontSize=12;fontColor=#4277BB;" parent="153" vertex="1">
          <mxGeometry x="105" y="28" width="60" height="60" as="geometry" />
        </mxCell>
        <mxCell id="156" value="日志分析" style="aspect=fixed;perimeter=ellipsePerimeter;html=1;align=center;shadow=0;dashed=0;image;image=img/lib/ibm/infrastructure/monitoring_logging.svg;labelBackgroundColor=none;strokeColor=#4277BB;strokeWidth=2;fillColor=#E52134;gradientColor=none;fontSize=12;fontColor=#4277BB;" parent="153" vertex="1">
          <mxGeometry x="105" y="560" width="60" height="60" as="geometry" />
        </mxCell>
        <mxCell id="157" value="KPI监控" style="aspect=fixed;perimeter=ellipsePerimeter;html=1;align=center;shadow=0;dashed=0;image;image=img/lib/ibm/infrastructure/monitoring.svg;labelBackgroundColor=none;strokeColor=#4277BB;strokeWidth=2;fillColor=#E52134;gradientColor=none;fontSize=12;fontColor=#4277BB;" parent="153" vertex="1">
          <mxGeometry x="105" y="383" width="60" height="60" as="geometry" />
        </mxCell>
        <mxCell id="158" value="界面展示" style="aspect=fixed;perimeter=ellipsePerimeter;html=1;align=center;shadow=0;dashed=0;image;image=img/lib/ibm/infrastructure/dashboard.svg;labelBackgroundColor=none;strokeColor=#4277BB;strokeWidth=2;fillColor=#E52134;gradientColor=none;fontSize=12;fontColor=#4277BB;" parent="153" vertex="1">
          <mxGeometry x="105" y="205" width="60" height="60" as="geometry" />
        </mxCell>
        <mxCell id="200" value="" style="line;strokeWidth=3;direction=south;html=1;shadow=0;labelBackgroundColor=none;fillColor=none;gradientColor=none;fontSize=12;fontColor=#4277BB;align=right;strokeColor=#4277BB;" parent="63" vertex="1">
          <mxGeometry x="1410" y="546" width="10" height="404" as="geometry" />
        </mxCell>
        <mxCell id="1EYf2WibRtq6nlrTMrHv-200" value="主机" style="sketch=0;pointerEvents=1;shadow=0;dashed=0;html=1;strokeColor=none;labelPosition=center;verticalLabelPosition=bottom;verticalAlign=top;outlineConnect=0;align=center;shape=mxgraph.office.servers.physical_host;fillColor=#2072B8;" vertex="1" parent="63">
          <mxGeometry x="35" y="69" width="35" height="64" as="geometry" />
        </mxCell>
        <mxCell id="1EYf2WibRtq6nlrTMrHv-201" value="UPS" style="shape=mxgraph.cisco.misc.ups;html=1;pointerEvents=1;dashed=0;fillColor=#036897;strokeColor=#ffffff;strokeWidth=2;verticalLabelPosition=bottom;verticalAlign=top;align=center;outlineConnect=0;" vertex="1" parent="63">
          <mxGeometry x="32.5" y="166" width="40" height="60" as="geometry" />
        </mxCell>
        <mxCell id="1EYf2WibRtq6nlrTMrHv-202" value="电源" style="aspect=fixed;html=1;points=[];align=center;image;fontSize=12;image=img/lib/azure2/general/Power.svg;" vertex="1" parent="63">
          <mxGeometry x="33.41" y="262" width="38.18" height="59" as="geometry" />
        </mxCell>
        <mxCell id="1EYf2WibRtq6nlrTMrHv-203" value="网络" style="image;html=1;image=img/lib/clip_art/computers/Network_2_128x128.png" vertex="1" parent="63">
          <mxGeometry x="20" y="357" width="65" height="60" as="geometry" />
        </mxCell>
        <mxCell id="1EYf2WibRtq6nlrTMrHv-219" value="数据库" style="image;html=1;image=img/lib/clip_art/computers/Database_128x128.png" vertex="1" parent="63">
          <mxGeometry x="20" y="454" width="65" height="58" as="geometry" />
        </mxCell>
        <mxCell id="1EYf2WibRtq6nlrTMrHv-220" value="交换机" style="image;html=1;image=img/lib/clip_art/networking/Switch_128x128.png" vertex="1" parent="63">
          <mxGeometry x="19" y="548" width="67" height="60" as="geometry" />
        </mxCell>
        <mxCell id="1EYf2WibRtq6nlrTMrHv-221" value="存储" style="aspect=fixed;perimeter=ellipsePerimeter;html=1;align=center;shadow=0;dashed=0;spacingTop=3;image;image=img/lib/active_directory/hard_disk.svg;" vertex="1" parent="63">
          <mxGeometry x="27.5" y="660" width="50" height="27" as="geometry" />
        </mxCell>
        <mxCell id="1EYf2WibRtq6nlrTMrHv-223" value="浏览器" style="shape=image;html=1;verticalAlign=top;verticalLabelPosition=bottom;labelBackgroundColor=#ffffff;imageAspect=0;aspect=fixed;image=https://cdn3.iconfinder.com/data/icons/3d-applications/128/app_icons_web_development___chrome_logo_website_browser_google.png" vertex="1" parent="63">
          <mxGeometry x="1470" y="320" width="68" height="68" as="geometry" />
        </mxCell>
        <mxCell id="1EYf2WibRtq6nlrTMrHv-228" value="其他应用" style="aspect=fixed;perimeter=ellipsePerimeter;html=1;align=center;shadow=0;dashed=0;image;image=img/lib/ibm/applications/app_server.svg;labelBackgroundColor=none;strokeColor=#4277BB;strokeWidth=2;fillColor=#E52134;gradientColor=none;fontSize=12;fontColor=#4277BB;verticalAlign=top;" vertex="1" parent="63">
          <mxGeometry x="1484" y="540" width="60" height="60" as="geometry" />
        </mxCell>
      </root>
    </mxGraphModel>
  </diagram>
</mxfile>
